<svg width="61" height="48" viewBox="0 0 61 48" fill="none" xmlns="http://www.w3.org/2000/svg">
    <path d="M61 0H13L0 48H61V0Z" fill="#005EC4"/>
    <path fill-rule="evenodd" clip-rule="evenodd" d="M35.4571 14.4C31.0073 14.4 27.4 18.0073 27.4 22.4571C27.4 26.907 31.0073 30.5143 35.4571 30.5143C39.907 30.5143 43.5143 26.907 43.5143 22.4571C43.5143 18.0073 39.907 14.4 35.4571 14.4ZM25 22.4571C25 16.6818 29.6818 12 35.4571 12C41.2325 12 45.9143 16.6818 45.9143 22.4571C45.9143 28.2325 41.2325 32.9143 35.4571 32.9143C29.6818 32.9143 25 28.2325 25 22.4571Z" fill="white"/>
    <path fill-rule="evenodd" clip-rule="evenodd" d="M42.3229 29.3229C42.7915 28.8543 43.5513 28.8543 44.02 29.3229L48.6485 33.9515C49.1172 34.4201 49.1172 35.1799 48.6485 35.6485C48.1799 36.1172 47.4201 36.1172 46.9515 35.6485L42.3229 31.02C41.8543 30.5513 41.8543 29.7915 42.3229 29.3229Z" fill="white"/>
</svg>