<?xml version="1.0" encoding="UTF-8"?>
<svg width="46px" height="46px" viewBox="0 0 46 46" version="1.1" xmlns="http://www.w3.org/2000/svg" xmlns:xlink="http://www.w3.org/1999/xlink">
    <!-- Generator: Sketch 52.5 (67469) - http://www.bohemiancoding.com/sketch -->
    <title>Group</title>
    <desc>Created with Sketch.</desc>
    <g id="Page-1" stroke="none" stroke-width="1" fill="none" fill-rule="evenodd">
        <g id="ZaloPay_Logo-4" transform="translate(-1150.000000, -1696.000000)">
            <g id="Group" transform="translate(1150.000000, 1696.000000)">
                <path d="M8.59340659,7.54450549 L42.2972527,2.61593407 C40.4142857,0.985714286 37.9626374,0 35.2835165,0 L10.7417582,0 C4.81483516,0 0.0252747253,4.8021978 0.0252747253,10.7164835 L0.0252747253,35.2582418 C0.0252747253,40.5785714 3.90494505,45.0016484 8.98516484,45.8357143 L4.53681319,13.0164835 C4.15769231,10.3879121 6.00274725,7.92362637 8.59340659,7.54450549 Z" id="Path" fill="#008FE5"></path>
                <path d="M42.2972527,2.61593407 L8.59340659,7.54450549 C6.00274725,7.92362637 4.15769231,10.3879121 4.53681319,13.0164835 L8.98516484,45.8357143 C9.55384615,45.9241758 10.1478022,45.9873626 10.7417582,45.9873626 L35.2835165,45.9873626 C41.2104396,45.9873626 46,41.1851648 46,35.2708791 L46,10.7164835 C46,7.48131868 44.571978,4.58736264 42.2972527,2.61593407 Z" id="Path" fill="#FFFFFF"></path>
                <g id="XMLID_85_" transform="translate(13.142857, 10.741758)">
                    <g id="XMLID_107_" fill="#008FE5">
                        <path d="M15.5186813,4.52417582 C15.3038462,4.30934066 15.0637363,4.1956044 14.7225275,4.1956044 C14.2675824,4.1956044 13.9263736,4.41043956 13.7241758,4.86538462 C13.2692308,4.32197802 12.6373626,4.06923077 11.8412088,4.06923077 C10.8807692,4.06923077 10.0846154,4.44835165 9.41483516,5.15604396 C8.74505495,5.91428571 8.4543956,6.78626374 8.4543956,7.83516484 C8.4543956,8.88406593 8.78296703,9.79395604 9.41483516,10.5142857 C10.0846154,11.2725275 10.8807692,11.6010989 11.8412088,11.6010989 C12.6373626,11.6010989 13.2565934,11.3483516 13.7241758,10.8049451 C13.939011,11.2598901 14.2675824,11.4747253 14.7225275,11.4747253 C15.0510989,11.4747253 15.3038462,11.3483516 15.5186813,11.1461538 C15.7335165,10.943956 15.8093407,10.6912088 15.8093407,10.35 L15.8093407,5.20659341 C15.8472527,5.02967033 15.7208791,4.73901099 15.5186813,4.52417582 Z M13.2565934,9.16208791 C13.0038462,9.49065934 12.6247253,9.66758242 12.1697802,9.66758242 C11.7148352,9.66758242 11.3357143,9.5032967 11.082967,9.16208791 C10.8302198,8.83351648 10.6659341,8.40384615 10.6659341,7.86043956 C10.6659341,7.35494505 10.7923077,6.93791209 11.082967,6.60934066 C11.3357143,6.28076923 11.7148352,6.10384615 12.1697802,6.10384615 C12.6247253,6.10384615 13.0038462,6.26813187 13.2565934,6.60934066 C13.5093407,6.93791209 13.6736264,7.36758242 13.6736264,7.86043956 C13.6357143,8.36593407 13.5093407,8.83351648 13.2565934,9.16208791 Z" id="XMLID_111_" fill-rule="nonzero"></path>
                        <path d="M18.3115385,11.2093407 C18.0967033,11.4241758 17.8565934,11.5379121 17.5153846,11.5379121 C17.1868132,11.5379121 16.9340659,11.4115385 16.7192308,11.2093407 C16.5043956,10.9945055 16.4285714,10.7543956 16.4285714,10.4131868 L16.4285714,1.21318681 C16.4285714,0.922527473 16.517033,0.66978022 16.7192308,0.417032967 C16.9340659,0.202197802 17.1741758,0.0884615385 17.5153846,0.0884615385 C17.843956,0.0884615385 18.0967033,0.214835165 18.3115385,0.417032967 C18.5263736,0.631868132 18.6021978,0.871978022 18.6021978,1.21318681 L18.6021978,10.4131868 C18.6021978,10.7543956 18.5263736,11.0071429 18.3115385,11.2093407 Z" id="XMLID_110_"></path>
                        <path d="M25.5401099,5.19395604 C24.8324176,4.43571429 23.9478022,4.10714286 22.860989,4.10714286 C21.7741758,4.10714286 20.9021978,4.48626374 20.1818681,5.19395604 C19.5120879,5.90164835 19.132967,6.82417582 19.132967,7.91098901 C19.132967,8.9978022 19.4615385,9.86978022 20.1818681,10.628022 C20.8516484,11.3357143 21.7741758,11.7148352 22.860989,11.7148352 C23.9478022,11.7148352 24.8197802,11.3357143 25.5401099,10.628022 C26.2098901,9.92032967 26.5384615,8.9978022 26.5384615,7.9489011 C26.589011,6.82417582 26.2604396,5.90164835 25.5401099,5.19395604 Z M23.9983516,9.16208791 C23.7456044,9.49065934 23.3664835,9.66758242 22.9115385,9.66758242 C22.4565934,9.66758242 22.0774725,9.5032967 21.8247253,9.16208791 C21.571978,8.83351648 21.4076923,8.40384615 21.4076923,7.86043956 C21.4076923,7.35494505 21.5340659,6.93791209 21.8247253,6.60934066 C22.0774725,6.28076923 22.4565934,6.10384615 22.9115385,6.10384615 C23.3664835,6.10384615 23.7456044,6.26813187 23.9983516,6.60934066 C24.2510989,6.93791209 24.4153846,7.36758242 24.4153846,7.86043956 C24.3774725,8.36593407 24.2510989,8.83351648 23.9983516,9.16208791 Z" id="XMLID_109_" fill-rule="nonzero"></path>
                        <path d="M7.24120879,4.35989011 C7.99945055,3.36153846 8.41648352,2.69175824 8.41648352,2.35054945 C8.41648352,1.5543956 7.91098901,1.13736264 6.91263736,1.13736264 L1.60494505,1.13736264 C1.18791209,1.13736264 0.846703297,1.22582418 0.644505495,1.42802198 C0.42967033,1.64285714 0.315934066,1.88296703 0.315934066,2.18626374 C0.315934066,2.51483516 0.442307692,2.76758242 0.644505495,2.94450549 C0.859340659,3.15934066 1.18791209,3.23516484 1.60494505,3.23516484 L5.24450549,3.23516484 L0.568681319,9.25054945 C0.278021978,9.62967033 0.113736264,10.0087912 0.113736264,10.2994505 C0.113736264,11.1714286 0.695054945,11.6010989 1.87032967,11.6010989 L7.34230769,11.6010989 C8.21428571,11.6010989 8.64395604,11.221978 8.64395604,10.5142857 C8.64395604,9.75604396 8.22692308,9.42747253 7.34230769,9.42747253 L3.32362637,9.42747253 L7.24120879,4.35989011 Z" id="XMLID_108_"></path>
                    </g>
                    <g id="XMLID_86_" transform="translate(0.000000, 13.269231)" fill="#04BE04">
                        <path d="M4.63791209,4.09450549 L3.26043956,4.09450549 L3.26043956,6.93791209 L4.63791209,6.93791209 C5.05494505,6.93791209 5.39615385,6.81153846 5.63626374,6.52087912 C5.88901099,6.26813187 6.01538462,5.88901099 6.01538462,5.52252747 C6.01538462,5.10549451 5.88901099,4.76428571 5.63626374,4.52417582 C5.39615385,4.22087912 5.06758242,4.09450549 4.63791209,4.09450549 Z" id="XMLID_106_"></path>
                        <path d="M11.4620879,6.72307692 C11.0450549,6.72307692 10.7038462,6.88736264 10.4637363,7.17802198 C10.210989,7.50659341 10.0846154,7.88571429 10.0846154,8.3532967 C10.0846154,8.82087912 10.210989,9.22527473 10.4637363,9.52857143 C10.7164835,9.85714286 11.0450549,9.98351648 11.4620879,9.98351648 C11.8791209,9.98351648 12.2203297,9.81923077 12.4604396,9.52857143 C12.7131868,9.2 12.8395604,8.82087912 12.8395604,8.3532967 C12.8395604,7.89835165 12.7131868,7.48131868 12.4604396,7.17802198 C12.2076923,6.88736264 11.8791209,6.72307692 11.4620879,6.72307692 Z" id="XMLID_88_"></path>
                        <path d="M21.0791209,0.0379120879 L1.30164835,0.0379120879 C0.631868132,0.0379120879 0.0884615385,0.581318681 0.0884615385,1.2510989 L0.0884615385,12.8269231 C0.0884615385,13.4967033 0.631868132,14.0401099 1.30164835,14.0401099 L16.8961538,14.0401099 C16.7318681,13.8758242 16.6434066,13.7115385 16.6434066,13.4967033 C16.6434066,13.3324176 16.6813187,13.1681319 16.7697802,12.9532967 L17.528022,11.3230769 L15.4807692,6.21758242 C15.4428571,6.09120879 15.3923077,5.92692308 15.3923077,5.76263736 C15.3923077,5.5478022 15.4807692,5.3456044 15.682967,5.21923077 C15.8472527,5.05494505 16.0620879,4.96648352 16.2642857,4.96648352 C16.7192308,4.96648352 17.0225275,5.18131868 17.1868132,5.63626374 L18.4379121,9.11153846 L19.7774725,5.63626374 C19.9417582,5.21923077 20.2324176,4.96648352 20.7,4.96648352 C20.9148352,4.96648352 21.117033,5.05494505 21.2813187,5.21923077 C21.4456044,5.38351648 21.571978,5.5478022 21.571978,5.76263736 C21.571978,5.92692308 21.5340659,6.09120879 21.4835165,6.21758242 L18.4758242,13.5346154 C18.3873626,13.7494505 18.3115385,13.9137363 18.1851648,14.0401099 L21.0664835,14.0401099 C21.7362637,14.0401099 22.2796703,13.4967033 22.2796703,12.8269231 L22.2796703,1.2510989 C22.2796703,0.543406593 21.7362637,0.0379120879 21.0791209,0.0379120879 Z M7.11483516,7.80989011 C6.48296703,8.39120879 5.69945055,8.64395604 4.77692308,8.64395604 L3.27307692,8.64395604 L3.27307692,10.8175824 C3.27307692,11.1461538 3.18461538,11.3989011 2.98241758,11.5758242 C2.81813187,11.7401099 2.56538462,11.8664835 2.27472527,11.8664835 C1.98406593,11.8664835 1.73131868,11.778022 1.56703297,11.5758242 C1.40274725,11.4115385 1.27637363,11.1208791 1.27637363,10.8175824 L1.27637363,3.29835165 C1.27637363,2.59065934 1.60494505,2.24945055 2.32527473,2.24945055 L4.71373626,2.24945055 C5.71208791,2.24945055 6.50824176,2.54010989 7.17802198,3.12142857 C7.80989011,3.70274725 8.13846154,4.4989011 8.13846154,5.42142857 C8.11318681,6.47032967 7.78461538,7.22857143 7.11483516,7.80989011 Z M14.8489011,10.7796703 C14.8489011,11.0703297 14.7604396,11.2851648 14.5582418,11.4873626 C14.3434066,11.7021978 14.1412088,11.778022 13.8505495,11.778022 C13.4335165,11.778022 13.0923077,11.5631868 12.8901099,11.1461538 C12.4730769,11.6516484 11.8917582,11.9043956 11.1335165,11.9043956 C10.2615385,11.9043956 9.5032967,11.5758242 8.92197802,10.906044 C8.34065934,10.2362637 7.99945055,9.4021978 7.99945055,8.40384615 C7.99945055,7.40549451 8.29010989,6.60934066 8.92197802,5.90164835 C9.5032967,5.23186813 10.2615385,4.9032967 11.1335165,4.9032967 C11.8917582,4.9032967 12.4351648,5.15604396 12.8901099,5.66153846 C13.1049451,5.24450549 13.3956044,5.02967033 13.8505495,5.02967033 C14.1412088,5.02967033 14.393956,5.11813187 14.5582418,5.32032967 C14.7730769,5.53516484 14.8489011,5.73736264 14.8489011,6.02802198 L14.8489011,10.7796703 Z" id="XMLID_87_" fill-rule="nonzero"></path>
                    </g>
                </g>
            </g>
        </g>
    </g>
</svg>